<svg width="25" height="26" viewBox="0 0 25 26" fill="none" xmlns="http://www.w3.org/2000/svg">
<path d="M5.9497 10.6877C5.96615 10.4799 6.05914 10.2861 6.21018 10.1448C6.36122 10.0034 6.55921 9.92498 6.76473 9.92502H18.1309C18.3364 9.92498 18.5344 10.0034 18.6854 10.1448C18.8365 10.2861 18.9295 10.4799 18.9459 10.6877L19.6628 19.7399C19.6809 19.9681 19.6522 20.1975 19.5785 20.4138C19.5048 20.6301 19.3878 20.8286 19.2347 20.9968C19.0817 21.165 18.896 21.2993 18.6892 21.3911C18.4825 21.483 18.2593 21.5304 18.0336 21.5305H6.862C6.63632 21.5304 6.41309 21.483 6.20637 21.3911C5.99966 21.2993 5.81393 21.165 5.66089 20.9968C5.50784 20.8286 5.3908 20.6301 5.31712 20.4138C5.24344 20.1975 5.21472 19.9681 5.23278 19.7399L5.94889 10.6877H5.9497Z" stroke="white" stroke-width="1.35" stroke-linecap="round" stroke-linejoin="round"/>
<path d="M15.7175 12.412V8.26714C15.7175 7.38773 15.373 6.54433 14.7598 5.92248C14.1466 5.30064 13.3149 4.95129 12.4476 4.95129C11.5804 4.95129 10.7487 5.30064 10.1355 5.92248C9.52224 6.54433 9.17773 7.38773 9.17773 8.26714V12.412" stroke="white" stroke-width="1.35" stroke-linecap="round" stroke-linejoin="round"/>
</svg>
