<svg width="231" height="96" viewBox="0 0 231 96" fill="none" xmlns="http://www.w3.org/2000/svg">
<ellipse cx="115" cy="24.5" rx="24" ry="24.5" fill="#151515"/>
<path d="M75.7591 78.2393V87.9337C75.7591 88.9631 75.381 89.4684 74.6057 89.4684C73.7926 89.4684 73.3766 88.9631 73.3766 87.9337V66.9727C73.3766 65.9433 73.7737 65.438 74.5679 65.438C75.362 65.438 75.7591 65.9433 75.7591 66.9727V75.7876H83.8143V67.7026C83.8143 61.6201 80.7132 59 74.5679 59C68.1956 59 65 62.35 65 69.0501V85.8751C65 92.5938 68.1956 95.9439 74.5679 95.9439C80.7322 95.9626 83.8143 93.0804 83.8143 87.2974V78.2393H75.7591Z" fill="#151515"/>
<path d="M94.6355 59C88.2632 59 85.0676 62.35 85.0676 69.0501V85.8751C85.0676 92.5938 88.2632 95.9439 94.6355 95.9439C101.083 95.9439 104.279 92.7623 104.279 85.8751V69.0501C104.279 62.1816 101.083 59 94.6355 59ZM95.9591 87.9712C95.9591 89.0005 95.5242 89.5058 94.6733 89.5058C93.9358 89.5058 93.4442 88.9444 93.4442 87.9712V66.9727C93.4442 65.9995 93.9358 65.438 94.6733 65.438C95.5242 65.438 95.9591 65.9433 95.9591 66.9727V87.9712Z" fill="#151515"/>
<path d="M119.109 82.5812L118.806 76.5175L117.445 59.3556H105.873V95.5695H113.606V84.6773L113.153 71.6889H113.606L115.743 95.5695H122.834L125.027 71.7264H125.5L125.065 84.7147L125.027 95.5695H132.78V59.3556H121.208L119.846 76.5175L119.582 82.5812H119.109Z" fill="#151515"/>
<path d="M151.751 79.8488C152.942 78.4638 153.528 76.6297 153.528 74.3652V67.3283C153.528 62.219 150.692 59.3556 145.076 59.3556H134.676V95.5695H142.807V83.4982H144.509L145.662 95.5695H154.077L151.751 79.8488ZM142.807 66.1305H143.488C144.641 66.1305 145.208 66.8604 145.208 68.3202V74.8705C145.189 76.5549 144.622 77.3971 143.488 77.3971H142.807V66.1305Z" fill="#151515"/>
<path d="M174.56 95.5695L170.797 59.3556H157.561L153.685 95.5695H162.08L162.477 88.9444L165.692 88.9818L166.07 95.5695H174.56ZM163.593 70.8842L163.858 66.561H164.368L164.633 70.8842L165.295 82.5438H162.893L163.593 70.8842Z" fill="#151515"/>
<path d="M174.962 59.3556V95.5695H184.833C187.613 95.5695 189.806 94.8397 191.413 93.3612C193.02 91.8826 193.815 89.7304 193.815 86.867V68.2453C193.815 62.3126 190.506 59.3556 184.833 59.3556H174.962ZM185.495 87.1664C185.495 88.2332 185.022 88.7759 184.095 88.7946H183.093V66.1305H184.133C185.041 66.1305 185.495 66.6732 185.495 67.74V87.1664Z" fill="#151515"/>
<path d="M203.577 80.2418H210.233V73.8412H203.577V66.1305H210.611V59.3556H195.446V95.5695H210.724V88.7946H203.577V80.2418Z" fill="#151515"/>
<path d="M230.527 66.2428C230.527 63.9782 229.733 62.2003 228.126 60.909C226.519 59.6363 224.268 59 221.356 59C218.255 59 215.892 59.7299 214.266 61.171C212.639 62.6308 211.826 64.6146 211.826 67.1224V72.0819C211.826 74.4213 212.318 76.218 213.32 77.4345C214.322 78.651 215.911 79.4932 218.104 79.9236L221.092 80.6535C222.151 81.0091 222.68 81.6641 222.68 82.5812V88.2519C222.68 89.0192 222.17 89.5432 221.432 89.5432C220.6 89.5432 220.146 88.9631 220.146 88.1396V82.1882H212.016V88.6262C212.016 93.3986 215.23 96 221.432 96C224.458 96 226.802 95.2327 228.485 93.7167C230.168 92.2008 231 90.0673 231 87.3349V81.2711C231 79.044 230.508 77.3971 229.525 76.2929C228.523 75.1887 227.067 74.3839 225.119 73.8786L221.356 72.9616C220.506 72.606 220.071 71.9884 220.071 71.1462V66.5984C220.09 65.7562 220.487 65.3257 221.281 65.3257C222.094 65.3257 222.51 65.7936 222.51 66.7107V71.6141H230.527V66.2428Z" fill="#151515"/>
<path d="M17.1052 87.5082V95.7206H9.184V87.5082H0V81.2093L9.4136 59.5599H17.1052V81.0694H18.942V87.5082H17.1052ZM10.7459 70.142L6.1418 81.0694H10.5123L10.7459 70.142Z" fill="#151515"/>
<path d="M37.9002 70.3846C37.9002 73.8684 36.8096 76.6835 34.6284 78.8298C32.6768 80.7894 31.0714 82.5455 29.7857 84.2273C28.7142 85.8448 27.9623 87.3527 27.771 88.8146H37.6132V95.7206H20.2783V89.2812C20.2783 87.1349 20.948 84.8798 22.2874 82.5158C23.665 80.1206 25.7314 77.5389 28.4866 74.7705C29.4815 73.7751 30.8361 72.3132 30.8361 70.3846C30.8361 68.7671 30.8571 66.1477 28.5172 66.697C27.6429 66.9886 27.0554 68.7671 27.0554 70.3846V72.6709H19.9914V70.3846C19.9914 68.7671 20.221 67.2741 20.6802 65.9054C21.1394 64.5057 21.7708 63.3237 22.5744 62.3594C23.378 61.364 24.3155 60.5864 25.387 60.0265C26.4967 59.4666 27.6658 59.2102 28.9286 59.2102C30.1914 59.2102 31.3757 59.4666 32.4472 60.0265C33.5569 60.5864 34.5136 61.364 35.3172 62.3594C36.1208 63.3237 36.7522 64.5057 37.2114 65.9054C37.6706 67.2741 37.9002 68.7671 37.9002 70.3846Z" fill="#151515"/>
<path d="M57 88.628C57 89.6234 56.7513 90.5721 56.2538 91.4742C55.7946 92.3762 55.1441 93.1694 54.3022 93.8537C53.4986 94.5069 52.5419 95.0202 51.4322 95.3934C50.3225 95.7978 49.1553 96 47.9308 96C46.668 96 45.4817 95.7978 44.372 95.3934C43.3005 95.0202 42.3439 94.5069 41.502 93.8537C40.6984 93.1694 40.0479 92.3918 39.5504 91.5208C39.0912 90.6187 38.8616 89.6545 38.8616 88.628V66.372C38.8616 65.3766 39.0912 64.4279 39.5504 63.5259C40.0479 62.6238 40.6984 61.8462 41.502 61.1929C42.3439 60.5086 43.3197 59.9798 44.4294 59.6066C45.5391 59.2022 46.7063 59 47.9308 59C49.1553 59 50.3033 59.2022 51.3748 59.6066C52.4845 59.9798 53.4603 60.5086 54.3022 61.1929C55.1441 61.8773 55.7946 62.6704 56.2538 63.5725C56.7513 64.4435 57 65.3766 57 66.372V88.628ZM49.0214 66.372C49.0214 65.7499 48.6579 65.4388 47.9308 65.4388C47.1655 65.4388 46.7828 65.7499 46.7828 66.372V88.628C46.7828 89.2501 47.1655 89.5612 47.9308 89.5612C48.6579 89.5612 49.0214 89.2501 49.0214 88.628V66.372Z" fill="#151515"/>
<path d="M126.385 12.803L131 20.5491L122.367 23.93L130.998 27.7331L126.235 35.3392L118.794 29.8456L119.836 39H110.161L111.203 29.8456L103.763 35.3392L99 27.7331L107.483 23.93L99 20.5491L103.615 12.803L111.055 18.1544L110.161 9H119.834L118.942 18.1544L126.385 12.803Z" fill="white"/>
</svg>
