<svg width="15" height="30" viewBox="0 0 15 30" fill="none" xmlns="http://www.w3.org/2000/svg">
<g clip-path="url(#clip0_2005_64)">
<path d="M0.606258 3.78948C0.254237 3.3609 0.0586696 2.797 0.0782266 2.21053C0.0782267 1.62406 0.273794 1.08271 0.645371 0.654137C0.997392 0.248122 1.48631 2.63329e-06 1.99479 2.67775e-06C2.50326 2.7222e-06 2.99218 0.203011 3.36376 0.609025L14.4329 13.3759C14.6089 13.5789 14.7458 13.8271 14.8435 14.0977C14.9413 14.3684 15 14.6617 15 14.9549C15 15.2481 14.9413 15.5414 14.8435 15.8346C14.7458 16.1053 14.6089 16.3534 14.4329 16.5564L3.36375 29.3233C3.18774 29.5263 2.97262 29.7068 2.73794 29.8195C2.4837 29.9323 2.22946 30 1.97523 30C1.72099 30 1.44719 29.9549 1.21251 29.8421C0.977833 29.7293 0.76271 29.5489 0.567142 29.3459C0.391131 29.1429 0.254234 28.8722 0.156451 28.6015C0.0391103 28.3308 -2.68946e-06 28.0376 -2.66186e-06 27.7218C-2.63622e-06 27.4286 0.0586674 27.1353 0.156451 26.8647C0.254235 26.594 0.410689 26.3459 0.606256 26.1203L10.2868 14.9549L8.4485 12.8571L0.606258 3.78948Z" fill="black"/>
</g>
<defs>
<clipPath id="clip0_2005_64">
<rect width="15" height="30" fill="white" transform="translate(15 30) rotate(-180)"/>
</clipPath>
</defs>
</svg>
