<svg width="546" height="681" viewBox="0 0 546 681" fill="none" xmlns="http://www.w3.org/2000/svg">
<circle cx="274.018" cy="269.616" r="243.392" fill="#151515"/>
<g filter="url(#filter0_d_2103_1835)">
<circle cx="273.198" cy="268.796" r="268.296" stroke="white" stroke-dasharray="2 2" shape-rendering="crispEdges"/>
</g>
<path d="M378.869 157.777L421.817 234.721L341.47 268.305L421.794 306.082L377.47 381.636L308.221 327.067L317.92 418H227.874L237.573 327.067L168.324 381.636L124 306.082L202.949 268.305L124 234.721L166.948 157.777L236.197 210.933L227.874 120H317.898L309.597 210.933L378.869 157.777Z" fill="white"/>
<path d="M188.746 642.759V663.624C188.746 665.839 187.938 666.926 186.281 666.926C184.544 666.926 183.655 665.839 183.655 663.624V618.511C183.655 616.296 184.503 615.208 186.2 615.208C187.897 615.208 188.746 616.296 188.746 618.511V637.483H205.959V620.082C205.959 606.992 199.332 601.353 186.2 601.353C172.583 601.353 165.755 608.562 165.755 622.982V659.193C165.755 673.653 172.583 680.863 186.2 680.863C199.372 680.903 205.959 674.7 205.959 662.254V642.759H188.746Z" fill="#151515"/>
<path d="M229.082 601.353C215.465 601.353 208.637 608.562 208.637 622.982V659.193C208.637 673.653 215.465 680.863 229.082 680.863C242.86 680.863 249.689 674.015 249.689 659.193V622.982C249.689 608.2 242.86 601.353 229.082 601.353ZM231.91 663.704C231.91 665.919 230.981 667.007 229.163 667.007C227.587 667.007 226.536 665.799 226.536 663.704V618.511C226.536 616.417 227.587 615.208 229.163 615.208C230.981 615.208 231.91 616.296 231.91 618.511V663.704Z" fill="#151515"/>
<path d="M281.378 652.104L280.732 639.053L277.823 602.118H253.094V680.057H269.62V656.615L268.651 628.662H269.62L274.186 680.057H289.338L294.025 628.742H295.036L294.106 656.696L294.025 680.057H310.592V602.118H285.863L282.954 639.053L282.389 652.104H281.378Z" fill="#151515"/>
<path d="M351.13 646.223C353.676 643.242 354.928 639.295 354.928 634.421V619.277C354.928 608.28 348.867 602.118 336.867 602.118H314.644V680.057H332.018V654.077H335.655L338.119 680.057H356.1L351.13 646.223ZM332.018 616.699H333.473C335.937 616.699 337.15 618.27 337.15 621.411V635.509C337.109 639.134 335.897 640.947 333.473 640.947H332.018V616.699Z" fill="#151515"/>
<path d="M399.871 680.057L391.83 602.118H363.546L355.263 680.057H373.203L374.051 665.799L380.92 665.879L381.729 680.057H399.871ZM376.435 626.93L377.001 617.625H378.092L378.658 626.93L380.072 652.023H374.94L376.435 626.93Z" fill="#151515"/>
<path d="M400.731 602.118V680.057H421.822C427.762 680.057 432.449 678.486 435.884 675.304C439.318 672.122 441.015 667.49 441.015 661.328V621.25C441.015 608.482 433.944 602.118 421.822 602.118H400.731ZM423.237 661.972C423.237 664.268 422.226 665.436 420.246 665.476H418.105V616.699H420.327C422.267 616.699 423.237 617.867 423.237 620.163V661.972Z" fill="#151515"/>
<path d="M461.876 647.069H476.099V633.294H461.876V616.699H476.907V602.118H444.501V680.057H477.149V665.476H461.876V647.069Z" fill="#151515"/>
<path d="M519.465 616.94C519.465 612.067 517.768 608.24 514.334 605.461C510.899 602.722 506.091 601.353 499.868 601.353C493.242 601.353 488.191 602.923 484.716 606.025C481.241 609.167 479.504 613.436 479.504 618.834V629.507C479.504 634.542 480.555 638.409 482.696 641.027C484.838 643.645 488.232 645.458 492.919 646.384L499.303 647.955C501.566 648.72 502.697 650.13 502.697 652.104V664.308C502.697 665.96 501.606 667.088 500.03 667.088C498.252 667.088 497.283 665.839 497.283 664.067V651.258H479.908V665.114C479.908 675.385 486.777 680.984 500.03 680.984C506.495 680.984 511.505 679.332 515.101 676.07C518.698 672.807 520.475 668.215 520.475 662.335V649.284C520.475 644.491 519.425 640.947 517.324 638.57C515.182 636.194 512.071 634.462 507.909 633.374L499.868 631.401C498.05 630.635 497.121 629.306 497.121 627.493V617.706C497.161 615.893 498.01 614.967 499.707 614.967C501.444 614.967 502.333 615.974 502.333 617.947V628.5H519.465V616.94Z" fill="#151515"/>
<path d="M65.2317 662.708V680.382H48.5066V662.708H29.1152V649.151L48.9914 602.558H65.2317V648.85H69.11V662.708H65.2317ZM51.8045 625.332L42.0832 648.85H51.3112L51.8045 625.332Z" fill="#151515"/>
<path d="M109.139 625.854C109.139 633.352 106.836 639.411 102.231 644.03C98.11 648.248 94.7204 652.027 92.0057 655.647C89.7434 659.128 88.1558 662.373 87.7518 665.519H108.533V680.382H71.9316V666.524C71.9316 661.904 73.3455 657.051 76.1735 651.963C79.0822 646.808 83.4452 641.252 89.2626 635.294C91.3634 633.151 94.2236 630.005 94.2236 625.854C94.2236 622.373 94.268 616.736 89.3273 617.918C87.4812 618.546 86.2409 622.373 86.2409 625.854V630.775H71.3256V625.854C71.3256 622.373 71.8104 619.16 72.78 616.214C73.7495 613.202 75.0827 610.658 76.7794 608.583C78.4762 606.44 80.4557 604.767 82.7181 603.562C85.0612 602.357 87.5296 601.805 90.1959 601.805C92.8623 601.805 95.3629 602.357 97.6252 603.562C99.9683 604.767 101.988 606.44 103.685 608.583C105.382 610.658 106.715 613.202 107.684 616.214C108.654 619.16 109.139 622.373 109.139 625.854Z" fill="#151515"/>
<path d="M149.467 665.118C149.467 667.26 148.942 669.302 147.891 671.243C146.922 673.185 145.548 674.892 143.771 676.364C142.074 677.77 140.054 678.875 137.711 679.678C135.368 680.549 132.903 680.984 130.318 680.984C127.652 680.984 125.147 680.549 122.804 679.678C120.541 678.875 118.521 677.77 116.744 676.364C115.047 674.892 113.674 673.218 112.623 671.344C111.654 669.402 111.169 667.327 111.169 665.118V617.219C111.169 615.076 111.654 613.034 112.623 611.093C113.674 609.152 115.047 607.478 116.744 606.072C118.521 604.599 120.582 603.461 122.925 602.658C125.268 601.788 127.732 601.353 130.318 601.353C132.903 601.353 135.327 601.788 137.59 602.658C139.933 603.461 141.993 604.599 143.771 606.072C145.548 607.545 146.922 609.252 147.891 611.193C148.942 613.068 149.467 615.076 149.467 617.219V665.118ZM132.621 617.219C132.621 615.88 131.853 615.21 130.318 615.21C128.702 615.21 127.894 615.88 127.894 617.219V665.118C127.894 666.457 128.702 667.126 130.318 667.126C131.853 667.126 132.621 666.457 132.621 665.118V617.219Z" fill="#151515"/>
<defs>
<filter id="filter0_d_2103_1835" x="0.402344" y="0" width="545.592" height="545.592" filterUnits="userSpaceOnUse" color-interpolation-filters="sRGB">
<feFlood flood-opacity="0" result="BackgroundImageFix"/>
<feColorMatrix in="SourceAlpha" type="matrix" values="0 0 0 0 0 0 0 0 0 0 0 0 0 0 0 0 0 0 127 0" result="hardAlpha"/>
<feOffset dy="4"/>
<feGaussianBlur stdDeviation="2"/>
<feComposite in2="hardAlpha" operator="out"/>
<feColorMatrix type="matrix" values="0 0 0 0 0 0 0 0 0 0 0 0 0 0 0 0 0 0 0.25 0"/>
<feBlend mode="normal" in2="BackgroundImageFix" result="effect1_dropShadow_2103_1835"/>
<feBlend mode="normal" in="SourceGraphic" in2="effect1_dropShadow_2103_1835" result="shape"/>
</filter>
</defs>
</svg>
