<svg width="23" height="15" viewBox="0 0 23 15" fill="none" xmlns="http://www.w3.org/2000/svg">
<g clip-path="url(#clip0_1_18)">
<mask id="mask0_1_18" style="mask-type:luminance" maskUnits="userSpaceOnUse" x="0" y="0" width="23" height="15">
<path d="M23 0H0V15H23V0Z" fill="white"/>
</mask>
<g mask="url(#mask0_1_18)">
<path d="M11.5 2.50007C18.2087 2.50007 22.0425 7.5001 22.0425 7.5001C22.0425 7.5001 18.2087 12.5001 11.5 12.5001C4.79245 12.5001 0.958727 7.5001 0.958727 7.5001C0.958727 7.5001 4.79245 2.50007 11.5 2.50007Z" stroke="#0E0C0C" stroke-width="1.5" stroke-linejoin="round"/>
<path d="M11.5 9.375C9.91237 9.375 9.5 8.53547 9.5 7.5C9.5 6.46449 9.91237 5.625 11.5 5.625C13.0876 5.625 13.5 6.46449 13.5 7.5C13.5 8.53547 13.0876 9.375 11.5 9.375Z" stroke="#0E0C0C" stroke-width="1.5" stroke-linejoin="round"/>
</g>
<line x1="0.310352" y1="2.31723" x2="22.3104" y2="12.3172" stroke="#0E0C0C" stroke-width="1.5"/>
</g>
<defs>
<clipPath id="clip0_1_18">
<rect width="23" height="15" fill="white"/>
</clipPath>
</defs>
</svg>
