<svg width="19.000000" height="19.000000" viewBox="0 0 19 19" fill="none" xmlns="http://www.w3.org/2000/svg" xmlns:xlink="http://www.w3.org/1999/xlink">
	<defs>
		<clipPath id="clip622_729">
			<rect id="eye-off" width="19.000000" height="19.000000" fill="white" fill-opacity="0"/>
		</clipPath>
	</defs>
	<rect id="eye-off" width="19.000000" height="19.000000" fill="#FFFFFF" fill-opacity="0"/>
	<g clip-path="url(#clip622_729)">
		<path id="Vector" d="M14.2031 14.2025C12.8496 15.234 11.2021 15.8055 9.5 15.8333C3.95898 15.8333 0.791992 9.5 0.791992 9.5C1.77637 7.66479 3.14258 6.0614 4.79785 4.79749M7.83789 3.35669C8.38281 3.22913 8.94043 3.16528 9.5 3.16663C15.042 3.16663 18.209 9.5 18.209 9.5C17.7285 10.399 17.1553 11.2454 16.499 12.0254M11.1787 11.1783C10.9609 11.4116 10.6992 11.5988 10.4072 11.7286C10.1162 11.8584 9.80176 11.9282 9.4834 11.9338C9.16406 11.9395 8.84766 11.8809 8.55176 11.7614C8.25586 11.642 7.9873 11.4641 7.76172 11.2386C7.53613 11.0131 7.3584 10.7444 7.23926 10.4487C7.11914 10.153 7.06055 9.83618 7.06641 9.51733C7.07227 9.19849 7.1416 8.88391 7.27148 8.59265C7.40137 8.30127 7.58887 8.03906 7.82227 7.82166" stroke="#666666" stroke-opacity="1.000000" stroke-width="1.500000" stroke-linejoin="round"/>
		<path id="Vector" d="M0.791992 0.791748L18.209 18.2084" stroke="#666666" stroke-opacity="1.000000" stroke-width="1.500000" stroke-linejoin="round" stroke-linecap="round"/>
	</g>
</svg>
