<svg width="52" height="51" viewBox="0 0 52 51" fill="none" xmlns="http://www.w3.org/2000/svg">
<rect x="0.645508" width="51" height="51" rx="25.5" fill="#F3F3F3"/>
<g clip-path="url(#clip0_2017_1753)">
<path d="M35.7816 21.3774L35.7816 21.3774L35.7819 21.3822C35.8764 23.0215 35.8764 27.9688 35.7819 29.6081L35.7817 29.6115C35.703 31.1565 35.3502 32.438 34.2819 33.4896L34.2812 33.4902C33.2118 34.547 31.9065 34.8958 30.3336 34.9691L30.329 34.9693C28.6627 35.0624 23.6314 35.0624 21.9652 34.9693L21.962 34.9691C20.3886 34.8915 19.0864 34.5428 18.0116 33.4889C16.9395 32.4375 16.5868 31.1567 16.5125 29.6129L16.5126 29.6129L16.5123 29.6081C16.4178 27.9688 16.4178 23.017 16.5123 21.3777L16.5123 21.3777L16.5125 21.3743C16.5912 19.8282 16.9399 18.5478 18.0116 17.4969C19.0861 16.4432 20.3926 16.0945 21.9607 16.0212L21.9607 16.0212L21.9652 16.021C23.6314 15.9279 28.6627 15.9279 30.329 16.021L30.329 16.021L30.3322 16.0212C31.9063 16.0989 33.2122 16.4478 34.2819 17.5007L34.2826 17.5014C35.3547 18.5528 35.7074 19.8336 35.7816 21.3774ZM32.3465 33.7917L32.3482 33.791C33.3701 33.3876 34.1605 32.6119 34.568 31.6038C34.8725 30.8506 34.9733 29.6485 35.0089 28.5254C35.0349 27.7036 35.0263 26.8644 35.0194 26.1933C35.0167 25.9313 35.0143 25.6949 35.0143 25.4952C35.0143 25.2954 35.0167 25.0591 35.0194 24.7971C35.0263 24.1264 35.0349 23.2879 35.0089 22.4666C34.9733 21.3437 34.8725 20.1422 34.5682 19.387L34.5675 19.3852C34.1558 18.3746 33.3663 17.5981 32.347 17.1988L32.3457 17.1983C31.5849 16.9028 30.3685 16.8035 29.2272 16.7679C28.3866 16.7417 27.5291 16.7498 26.845 16.7563C26.5845 16.7587 26.3491 16.7609 26.1494 16.7609C25.9461 16.7609 25.7057 16.7586 25.4394 16.7559C24.7582 16.7491 23.9073 16.7406 23.0735 16.7662C21.9326 16.8012 20.7157 16.9005 19.9523 17.1986L19.9505 17.1993C18.9286 17.6027 18.1383 18.3784 17.7307 19.3865L17.7307 19.3865L17.7302 19.3879C17.4286 20.1403 17.3277 21.3414 17.2916 22.4647C17.2649 23.2926 17.2732 24.1376 17.2797 24.8112C17.2822 25.0674 17.2845 25.2989 17.2845 25.4952C17.2845 25.6949 17.282 25.9312 17.2793 26.1932C17.2724 26.8639 17.2638 27.7024 17.2898 28.5237C17.3254 29.6466 17.4263 30.8481 17.7305 31.6033L17.7312 31.6051C18.143 32.6157 18.9325 33.3922 19.9517 33.7915L19.9531 33.792C20.7138 34.0875 21.9302 34.1868 23.0715 34.2224C23.9121 34.2486 24.7696 34.2405 25.4537 34.234C25.7143 34.2316 25.9496 34.2294 26.1494 34.2294C26.3527 34.2294 26.593 34.2317 26.8593 34.2344C27.5406 34.2412 28.3914 34.2497 29.2253 34.2241C30.3662 34.1891 31.583 34.0898 32.3465 33.7917ZM21.4173 25.4952C21.4173 22.9279 23.522 20.8449 26.1494 20.8449C28.7767 20.8449 30.8814 22.9279 30.8814 25.4952C30.8814 28.0624 28.7767 30.1454 26.1494 30.1454C23.522 30.1454 21.4173 28.0624 21.4173 25.4952ZM22.2479 25.4952C22.2479 27.6259 24.0096 29.3435 26.1494 29.3435C28.2891 29.3435 30.0509 27.6259 30.0509 25.4952C30.0509 23.3649 28.2941 21.6468 26.1494 21.6468C24.0046 21.6468 22.2479 23.3649 22.2479 25.4952ZM32.3158 20.1342C32.3158 20.5173 32.0019 20.8355 31.5954 20.8355C31.1869 20.8355 30.8751 20.5152 30.8751 20.1342C30.8751 19.7543 31.1902 19.4329 31.5954 19.4329C32.0007 19.4329 32.3158 19.7543 32.3158 20.1342Z" fill="#323232" stroke="black"/>
</g>
<defs>
<clipPath id="clip0_2017_1753">
<rect width="20.4" height="22.95" fill="white" transform="translate(15.9453 14.0249)"/>
</clipPath>
</defs>
</svg>
