<svg width="231" height="37" viewBox="0 0 231 37" fill="none" xmlns="http://www.w3.org/2000/svg">
<path d="M75.7591 19.2393V28.9337C75.7591 29.9631 75.381 30.4684 74.6057 30.4684C73.7926 30.4684 73.3766 29.9631 73.3766 28.9337V7.97269C73.3766 6.94335 73.7737 6.43804 74.5679 6.43804C75.362 6.43804 75.7591 6.94335 75.7591 7.97269V16.7876H83.8143V8.70258C83.8143 2.62013 80.7132 0 74.5679 0C68.1956 0 65 3.35003 65 10.0501V26.8751C65 33.5938 68.1956 36.9439 74.5679 36.9439C80.7322 36.9626 83.8143 34.0804 83.8143 28.2974V19.2393H75.7591Z" fill="#151515"/>
<path d="M94.6355 0C88.2632 0 85.0676 3.35003 85.0676 10.0501V26.8751C85.0676 33.5938 88.2632 36.9439 94.6355 36.9439C101.083 36.9439 104.279 33.7623 104.279 26.8751V10.0501C104.279 3.18159 101.083 0 94.6355 0ZM95.9591 28.9712C95.9591 30.0005 95.5242 30.5058 94.6733 30.5058C93.9358 30.5058 93.4442 29.9444 93.4442 28.9712V7.97269C93.4442 6.99949 93.9358 6.43804 94.6733 6.43804C95.5242 6.43804 95.9591 6.94335 95.9591 7.97269V28.9712Z" fill="#151515"/>
<path d="M119.109 23.5812L118.806 17.5175L117.445 0.355589H105.873V36.5695H113.606V25.6773L113.153 12.6889H113.606L115.743 36.5695H122.834L125.027 12.7264H125.5L125.065 25.7147L125.027 36.5695H132.78V0.355589H121.208L119.846 17.5175L119.582 23.5812H119.109Z" fill="#151515"/>
<path d="M151.751 20.8488C152.942 19.4638 153.528 17.6297 153.528 15.3652V8.32828C153.528 3.21902 150.692 0.355589 145.076 0.355589H134.676V36.5695H142.807V24.4982H144.509L145.662 36.5695H154.077L151.751 20.8488ZM142.807 7.1305H143.488C144.641 7.1305 145.208 7.86039 145.208 9.32018V15.8705C145.189 17.5549 144.622 18.3971 143.488 18.3971H142.807V7.1305Z" fill="#151515"/>
<path d="M174.56 36.5695L170.797 0.355589H157.561L153.685 36.5695H162.08L162.477 29.9444L165.692 29.9818L166.07 36.5695H174.56ZM163.593 11.8842L163.858 7.56095H164.368L164.633 11.8842L165.295 23.5438H162.893L163.593 11.8842Z" fill="#151515"/>
<path d="M174.962 0.355589V36.5695H184.833C187.613 36.5695 189.806 35.8397 191.413 34.3612C193.02 32.8826 193.815 30.7304 193.815 27.867V9.24532C193.815 3.31259 190.506 0.355589 184.833 0.355589H174.962ZM185.495 28.1664C185.495 29.2332 185.022 29.7759 184.095 29.7946H183.093V7.1305H184.133C185.041 7.1305 185.495 7.67324 185.495 8.74001V28.1664Z" fill="#151515"/>
<path d="M203.577 21.2418H210.233V14.8412H203.577V7.1305H210.611V0.355589H195.446V36.5695H210.724V29.7946H203.577V21.2418Z" fill="#151515"/>
<path d="M230.527 7.24279C230.527 4.97825 229.733 3.2003 228.126 1.90895C226.519 0.636318 224.268 0 221.356 0C218.255 0 215.892 0.729894 214.266 2.17097C212.639 3.63075 211.826 5.61457 211.826 8.12241V13.0819C211.826 15.4213 212.318 17.218 213.32 18.4345C214.322 19.651 215.911 20.4932 218.104 20.9236L221.092 21.6535C222.151 22.0091 222.68 22.6641 222.68 23.5812V29.2519C222.68 30.0192 222.17 30.5432 221.432 30.5432C220.6 30.5432 220.146 29.9631 220.146 29.1396V23.1882H212.016V29.6262C212.016 34.3986 215.23 37 221.432 37C224.458 37 226.802 36.2327 228.485 34.7167C230.168 33.2008 231 31.0673 231 28.3349V22.2711C231 20.044 230.508 18.3971 229.525 17.2929C228.523 16.1887 227.067 15.3839 225.119 14.8786L221.356 13.9616C220.506 13.606 220.071 12.9884 220.071 12.1462V7.59838C220.09 6.7562 220.487 6.32575 221.281 6.32575C222.094 6.32575 222.51 6.79363 222.51 7.71067V12.6141H230.527V7.24279Z" fill="#151515"/>
<path d="M17.1052 28.5082V36.7206H9.184V28.5082H0V22.2093L9.4136 0.5599H17.1052V22.0694H18.942V28.5082H17.1052ZM10.7459 11.142L6.1418 22.0694H10.5123L10.7459 11.142Z" fill="#151515"/>
<path d="M37.9002 11.3846C37.9002 14.8684 36.8096 17.6835 34.6284 19.8298C32.6768 21.7894 31.0714 23.5455 29.7857 25.2273C28.7142 26.8448 27.9623 28.3527 27.771 29.8146H37.6132V36.7206H20.2783V30.2812C20.2783 28.1349 20.948 25.8798 22.2874 23.5158C23.665 21.1206 25.7314 18.5389 28.4866 15.7705C29.4815 14.7751 30.8361 13.3132 30.8361 11.3846C30.8361 9.76713 30.8571 7.14773 28.5172 7.69702C27.6429 7.98864 27.0554 9.76713 27.0554 11.3846V13.6709H19.9914V11.3846C19.9914 9.76713 20.221 8.27406 20.6802 6.90542C21.1394 5.50568 21.7708 4.32367 22.5744 3.3594C23.378 2.36402 24.3155 1.58638 25.387 1.02648C26.4967 0.466583 27.6658 0.210227 28.9286 0.210227C30.1914 0.210227 31.3757 0.466583 32.4472 1.02648C33.5569 1.58638 34.5136 2.36402 35.3172 3.3594C36.1208 4.32367 36.7522 5.50568 37.2114 6.90542C37.6706 8.27406 37.9002 9.76713 37.9002 11.3846Z" fill="#151515"/>
<path d="M57 29.628C57 30.6234 56.7513 31.5721 56.2538 32.4742C55.7946 33.3762 55.1441 34.1694 54.3022 34.8537C53.4986 35.5069 52.5419 36.0202 51.4322 36.3934C50.3225 36.7978 49.1553 37 47.9308 37C46.668 37 45.4817 36.7978 44.372 36.3934C43.3005 36.0202 42.3439 35.5069 41.502 34.8537C40.6984 34.1694 40.0479 33.3918 39.5504 32.5208C39.0912 31.6187 38.8616 30.6545 38.8616 29.628V7.37201C38.8616 6.37663 39.0912 5.42791 39.5504 4.52585C40.0479 3.62379 40.6984 2.84615 41.502 2.19294C42.3439 1.50862 43.3197 0.979825 44.4294 0.606558C45.5391 0.202186 46.7063 0 47.9308 0C49.1553 0 50.3033 0.202186 51.3748 0.606558C52.4845 0.979825 53.4603 1.50862 54.3022 2.19294C55.1441 2.87726 55.7946 3.67045 56.2538 4.57251C56.7513 5.44346 57 6.37663 57 7.37201V29.628ZM49.0214 7.37201C49.0214 6.7499 48.6579 6.43884 47.9308 6.43884C47.1655 6.43884 46.7828 6.7499 46.7828 7.37201V29.628C46.7828 30.2501 47.1655 30.5612 47.9308 30.5612C48.6579 30.5612 49.0214 30.2501 49.0214 29.628V7.37201Z" fill="#151515"/>
</svg>
