<svg width="52" height="51" viewBox="0 0 52 51" fill="none" xmlns="http://www.w3.org/2000/svg">
<rect x="0.291016" width="51" height="51" rx="25.5" fill="#F3F3F3"/>
<g clip-path="url(#clip0_2017_1756)">
<path d="M34.9074 21.0611C34.9219 21.258 34.9219 21.4549 34.9219 21.6518C34.9219 27.6564 30.1893 34.5752 21.5393 34.5752C18.8744 34.5752 16.3988 33.8298 14.3164 32.5361C14.695 32.5783 15.0591 32.5924 15.4523 32.5924C17.6511 32.5924 19.6753 31.8752 21.2917 30.6518C19.2239 30.6096 17.491 29.3018 16.8939 27.5018C17.1852 27.5439 17.4764 27.572 17.7822 27.572C18.2045 27.572 18.6269 27.5158 19.02 27.4174C16.8648 26.9955 15.2483 25.1674 15.2483 22.9596V22.9033C15.8745 23.2408 16.6027 23.4518 17.3744 23.4799C16.1075 22.6642 15.2775 21.272 15.2775 19.697C15.2775 18.8533 15.5104 18.0799 15.9182 17.4049C18.2336 20.1611 21.714 21.9611 25.6166 22.158C25.5438 21.8205 25.5001 21.469 25.5001 21.1174C25.5001 18.6142 27.5971 16.5752 30.2037 16.5752C31.558 16.5752 32.7812 17.1236 33.6404 18.0096C34.7034 17.8127 35.7228 17.433 36.6257 16.9127C36.2761 17.9674 35.5335 18.8533 34.5578 19.4158C35.5044 19.3174 36.4218 19.0642 37.2664 18.7127C36.6258 19.6127 35.8248 20.4142 34.9074 21.0611V21.0611Z" fill="#323232"/>
</g>
<defs>
<clipPath id="clip0_2017_1756">
<rect width="22.95" height="19.125" fill="white" transform="translate(14.3164 16.575)"/>
</clipPath>
</defs>
</svg>
