<svg width="48" height="48" viewBox="0 0 48 48" fill="none" xmlns="http://www.w3.org/2000/svg">
<path d="M11.4003 19.1178C11.4321 18.7206 11.6125 18.35 11.9053 18.0797C12.1982 17.8095 12.5821 17.6595 12.9806 17.6595H35.0194C35.4179 17.6595 35.8018 17.8095 36.0946 18.0797C36.3875 18.35 36.5678 18.7206 36.5997 19.1178L37.9898 36.4268C38.0248 36.863 37.9691 37.3017 37.8263 37.7153C37.6834 38.1289 37.4564 38.5085 37.1597 38.8301C36.8629 39.1517 36.5028 39.4084 36.102 39.584C35.7012 39.7596 35.2683 39.8504 34.8307 39.8505H13.1692C12.7316 39.8504 12.2988 39.7596 11.8979 39.584C11.4971 39.4084 11.137 39.1517 10.8403 38.8301C10.5435 38.5085 10.3166 38.1289 10.1737 37.7153C10.0308 37.3017 9.97515 36.863 10.0102 36.4268L11.3987 19.1178H11.4003Z" stroke="black" stroke-width="1.35" stroke-linecap="round" stroke-linejoin="round"/>
<path d="M30.3397 22.4148V14.4895C30.3397 12.808 29.6717 11.1953 28.4827 10.0063C27.2937 8.81722 25.681 8.14923 23.9995 8.14923C22.3179 8.14923 20.7052 8.81722 19.5162 10.0063C18.3272 11.1953 17.6592 12.808 17.6592 14.4895V22.4148" stroke="black" stroke-width="1.35" stroke-linecap="round" stroke-linejoin="round"/>
<path d="M11.4003 19.1178C11.4321 18.7206 11.6125 18.35 11.9053 18.0797C12.1982 17.8095 12.5821 17.6595 12.9806 17.6595H35.0194C35.4179 17.6595 35.8018 17.8095 36.0946 18.0797C36.3875 18.35 36.5678 18.7206 36.5997 19.1178L37.9898 36.4268C38.0248 36.863 37.9691 37.3017 37.8263 37.7153C37.6834 38.1289 37.4564 38.5085 37.1597 38.8301C36.8629 39.1517 36.5028 39.4084 36.102 39.584C35.7012 39.7596 35.2683 39.8504 34.8307 39.8505H13.1692C12.7316 39.8504 12.2988 39.7596 11.8979 39.584C11.4971 39.4084 11.137 39.1517 10.8403 38.8301C10.5435 38.5085 10.3166 38.1289 10.1737 37.7153C10.0308 37.3017 9.97515 36.863 10.0102 36.4268L11.3987 19.1178H11.4003Z" stroke="#151515" stroke-width="1.35" stroke-linecap="round" stroke-linejoin="round"/>
<path d="M30.3397 22.4148V14.4895C30.3397 12.808 29.6717 11.1953 28.4827 10.0063C27.2937 8.81722 25.681 8.14923 23.9995 8.14923C22.3179 8.14923 20.7052 8.81722 19.5162 10.0063C18.3272 11.1953 17.6592 12.808 17.6592 14.4895V22.4148" stroke="#151515" stroke-width="1.35" stroke-linecap="round" stroke-linejoin="round"/>
</svg>
