<svg width="34" height="40" viewBox="0 0 34 40" fill="none" xmlns="http://www.w3.org/2000/svg">
<path d="M19.9 1H11.1C10.4925 1 10 1.53726 10 2.2V5.8C10 6.46274 10.4925 7 11.1 7H19.9C20.5075 7 21 6.46274 21 5.8V2.2C21 1.53726 20.5075 1 19.9 1Z" stroke="black" stroke-width="0.5"/>
<path d="M12.707 2.58826H11.8012C11.6489 2.58826 11.5255 2.72652 11.5255 2.89709V4.13238M11.5255 4.13238V5.36767C11.5255 5.5382 11.6489 5.67649 11.8012 5.67649H12.707M11.5255 4.13238H12.707M15.6605 2.58826L13.593 5.67649M13.593 2.58826L15.6605 5.67649M16.5466 2.58826V5.67649M17.4327 2.58826H18.6142M18.6142 2.58826H19.7956M18.6142 2.58826V5.67649" stroke="black" stroke-width="0.5" stroke-linecap="round"/>
<path d="M7.36683 21.7468C7.05405 21.7468 6.80017 21.9832 6.80017 22.2744V25.44C6.80017 25.7312 7.05405 25.9676 7.36683 25.9676C7.67961 25.9676 7.93348 25.7312 7.93348 25.44V22.2744C7.93355 21.9832 7.67967 21.7468 7.36683 21.7468Z" fill="black"/>
<path d="M7.42803 8.17692L2.07006 10.1729C0.561012 10.6931 0 11.399 0 12.7776V34.9415C0 36.3201 0.561012 37.026 2.05591 37.542L7.43879 39.5469C7.70515 39.6408 7.97257 39.6883 8.23442 39.6883C9.37344 39.6883 10.2002 38.8019 10.2002 37.5805V10.1396C10.2002 8.63915 8.91496 7.65572 7.42803 8.17692ZM9.06684 37.5805C9.06684 38.2099 8.73248 38.6331 8.23442 38.6331C8.1103 38.6331 7.97656 38.6083 7.84905 38.5639L2.46392 36.5575C1.39463 36.1887 1.13338 35.8711 1.13338 34.9415V12.7776C1.13338 11.848 1.39463 11.5309 2.47754 11.1573L7.8383 9.16091C7.97656 9.11238 8.1097 9.08759 8.23382 9.08759C8.73194 9.08759 9.06684 9.51018 9.06684 10.1396V37.5805Z" fill="black"/>
<path d="M11.8294 11.1949H19.8337C20.7709 11.1949 21.5337 11.905 21.5337 12.7777V20.6916C21.5337 20.9828 21.787 21.2192 22.1004 21.2192C22.4137 21.2192 22.667 20.9828 22.667 20.6916V12.7777C22.667 11.3231 21.396 10.1396 19.8336 10.1396H11.8294C11.5166 10.1396 11.2627 10.376 11.2627 10.6672C11.2627 10.9584 11.5166 11.1949 11.8294 11.1949Z" fill="black"/>
<path d="M22.1005 26.4951C21.7871 26.4951 21.5338 26.7315 21.5338 27.0227V34.9367C21.5338 35.8093 20.7711 36.5194 19.8338 36.5194H11.9003C11.5875 36.5194 11.3336 36.7558 11.3336 37.047C11.3336 37.3382 11.5875 37.5746 11.9003 37.5746H19.8338C21.3961 37.5746 22.6672 36.3912 22.6672 34.9366V27.0226C22.6671 26.7315 22.4139 26.4951 22.1005 26.4951Z" fill="black"/>
<path d="M33.957 23.6556C33.9281 23.5907 33.8868 23.5327 33.834 23.4836L28.1678 18.2077C27.9462 18.0014 27.5881 18.0014 27.3665 18.2077C27.1449 18.414 27.1449 18.7474 27.3665 18.9537L32.066 23.3296H13.0336C12.7208 23.3296 12.4669 23.5659 12.4669 23.8571C12.4669 24.1483 12.7208 24.3847 13.0336 24.3847H32.0661L27.3665 28.7601C27.1449 28.9665 27.1449 29.2999 27.3665 29.5062C27.477 29.609 27.6221 29.6607 27.7672 29.6607C27.9123 29.6607 28.0573 29.609 28.1678 29.5062L33.834 24.2307C33.8868 24.1816 33.9281 24.1236 33.957 24.0587C34.0143 23.93 34.0143 23.7844 33.957 23.6556Z" fill="black"/>
</svg>
